HIERARCHY
ROOT pelvis
{
  OFFSET 0 100 0
  CHANNELS 6 Xposition Yposition Zposition Zrotation Xrotation Yrotation
  JOINT pelvis_right_femur
  {
    OFFSET -10.78128 -3.44521 -0.5502486
    CHANNELS 3 Zrotation Xrotation Yrotation
    JOINT right_femur_tibia
    {
      OFFSET -0.8047443 -44.0398 -0.1307829
      CHANNELS 3 Zrotation Xrotation Yrotation
      JOINT right_tibia_foot
      {
        OFFSET 3.006224 -47.83518 -5
        CHANNELS 3 Zrotation Xrotation Yrotation
        End Site
        {
          OFFSET 0 -5 15
        }
      }
    }
  }
  JOINT pelvis_left_femur
  {
    OFFSET 10.78128 -3.44521 -0.5502486
    CHANNELS 3 Zrotation Xrotation Yrotation
    JOINT left_femur_tibia
    {
      OFFSET 0.8047443 -44.0398 -0.1307829
      CHANNELS 3 Zrotation Xrotation Yrotation
      JOINT left_tibia_foot
      {
        OFFSET -4.370144 -48.10324 -4.275266
        CHANNELS 3 Zrotation Xrotation Yrotation
        End Site
        {
          OFFSET 0 -5 15
        }
      }
    }
  }
  JOINT pelvis_spine1
  {
    OFFSET 0 6.468898 -3.129235
    CHANNELS 3 Zrotation Xrotation Yrotation
    JOINT spine1
    {
      OFFSET 0 23.15396 4.99043
      CHANNELS 3 Zrotation Xrotation Yrotation
      JOINT spine2
      {
        OFFSET 0 20.79997 -5.064912
        CHANNELS 3 Zrotation Xrotation Yrotation
        JOINT neck
        {
          OFFSET 0 14.38658 9.616178
          CHANNELS 3 Zrotation Xrotation Yrotation
          End Site
          {
            OFFSET 0 20 0
          }
        }
      }
      JOINT right_manubrium
      {
        OFFSET -5.722621 16.35077 3.967754
        CHANNELS 3 Zrotation Xrotation Yrotation
        JOINT right_clavicle
        {
          OFFSET -13.16364 1.694482 -4.693211
          CHANNELS 3 Zrotation Xrotation Yrotation
          JOINT right_humerus
          {
            OFFSET -28.5034 -0.3100689 -2.792744
            CHANNELS 3 Zrotation Xrotation Yrotation
            JOINT right_radius
            {
              OFFSET -25.15693 0.02248979 -1.271978
              CHANNELS 3 Zrotation Xrotation Yrotation
              End Site
              {
                OFFSET -15 0 0
              }
            }
          }
        }
      }
      JOINT left_manubrium
      {
        OFFSET 5.722621 16.35077 3.967754
        CHANNELS 3 Zrotation Xrotation Yrotation
        JOINT left_clavicle
        {
          OFFSET 13.16364 1.694482 -4.693211
          CHANNELS 3 Zrotation Xrotation Yrotation
          JOINT left_humerus
          {
            OFFSET 29.39168 -1.063119 -2.237045
            CHANNELS 3 Zrotation Xrotation Yrotation
            JOINT left_radius
            {
              OFFSET 24.59957 -0.9528479 0.9047498
              CHANNELS 3 Zrotation Xrotation Yrotation
              End Site
              {
                OFFSET 15 -0 -0
              }
            }
          }
        }
      }
    }
  }
}
MOTION
Frames: 10
Frame Time: 0.0416666666667
31.79223 105.3154 238.0548 1.693475 -6.739374 2.22991 1.046929 10.52489 7.151123 -3.286469e-06 36.19702 2.716319e-06 5.211225 -9.8543 -3.325824 -3.238887 -14.48873 -8.922865 2.818749e-09 20.17342 2.013619e-06 -5.555703 -10.32209 19.42213 -1.46781 -0.8354407 8.474478 -1.316781 9.880607 -2.917834 2.886696 21.79046 5.006655 1.464215 -17.15885 8.507312 2.102426 -21.11168 10.31379 81.41076 23.13048 -7.786832 5.623997e-07 -3.516566e-07 24.5505 -23.48614 12.97436 11.91519 4.350397 -14.67519 -2.875416 -93.93962 23.09983 26.25546 -8.009655e-08 -4.047247e-07 -9.917257 -1.013616 7.876442 15.6837
33.14761 105.8499 244.1654 1.963879 -7.298555 2.57332 0.5060308 8.355871 7.116471 -2.620302e-06 43.20745 2.261218e-06 4.934575 -8.100954 -4.02727 -4.261066 -11.13088 -9.749878 4.187136e-07 21.31308 1.477868e-06 -5.043872 -10.82294 19.19001 -1.864901 -0.8989815 7.876521 -1.387331 9.935739 -3.16015 2.890637 22.12992 5.093038 1.45809 -16.89568 8.63539 2.446153 -20.18543 10.23268 82.05538 23.53932 -8.798549 4.970791e-07 -3.059457e-07 22.91375 -22.95653 12.80117 11.27505 4.058782 -14.80059 -3.132295 -92.68463 23.78683 24.52938 -6.126161e-08 -3.062785e-07 -10.29759 -0.7104328 8.150456 15.36077
34.44968 106.6904 249.9969 2.139584 -7.971323 3.193826 0.1384603 4.712688 6.897531 -3.535967e-06 49.83145 2.984247e-06 4.559132 -7.076681 -5.116601 -4.978378 -7.086398 -10.27348 8.680268e-07 21.39809 5.058525e-07 -4.751025 -11.75606 18.54501 -2.200449 -0.6319936 7.020627 -1.370167 9.915344 -3.599636 2.89335 22.60308 5.115383 1.273059 -16.54765 8.843871 2.706015 -19.20347 10.12472 83.37726 24.02774 -10.07681 5.129856e-07 -3.419671e-07 21.22929 -22.39386 12.88755 10.72861 3.782867 -15.10509 -3.496736 -91.38487 24.52785 22.27896 -2.318452e-07 -3.173939e-07 -11.14038 -0.3323439 8.396105 15.06723
35.64461 107.6225 255.3212 2.1359 -8.481091 4.008762 0.186436 -0.4389968 6.599291 -1.815349e-06 53.72069 1.520562e-06 3.757683 -7.166544 -6.197832 -5.332932 -2.686022 -10.77635 1.464215e-06 20.80122 -8.103868e-07 -4.49527 -12.88986 17.70869 -2.354153 -0.07413468 5.973258 -1.135521 9.844101 -4.209845 2.817619 22.97896 5.143801 1.040818 -16.302 9.029244 2.987583 -18.23161 10.07741 84.51274 24.70372 -11.52823 7.075186e-08 -1.845793e-07 19.40704 -21.21753 13.00753 10.01112 3.610229 -15.62209 -3.897464 -89.72898 25.28602 19.65632 -3.224013e-07 -1.666381e-07 -12.47484 0.2095025 8.77409 14.56277
36.75206 108.4361 260.3488 2.066048 -8.635132 4.951313 0.4175179 -5.721421 6.092023 -1.9057e-06 54.21728 1.53226e-06 2.99796 -7.41523 -7.106215 -5.399463 1.434773 -11.00599 1.702896e-06 19.16699 -1.764804e-06 -4.449463 -14.30094 16.84689 -2.383852 0.4580328 5.001234 -0.8369959 9.661074 -4.814273 2.768866 23.24891 5.163959 0.8376913 -16.18219 9.206187 3.020878 -17.41196 9.966187 85.74986 25.13701 -12.96144 -1.372595e-07 -1.219368e-07 17.80229 -20.30009 13.12634 9.483749 3.724277 -16.27024 -4.214998 -88.31058 25.70554 17.05038 -4.910169e-07 -1.39631e-07 -14.12717 0.8060474 9.133373 13.91441
37.7544 108.8906 265.1174 2.016592 -8.4557 5.907984 0.7526708 -10.84827 5.552407 -1.040465e-06 50.87798 6.414042e-07 2.303812 -8.043259 -7.726765 -5.318461 5.013654 -11.18022 1.620696e-06 16.83102 -1.853465e-06 -4.249863 -15.95237 16.39008 -2.397732 0.8986207 4.193285 -0.4702521 9.410947 -5.364445 2.726524 23.35656 5.209226 0.7507897 -16.12439 9.306974 2.923912 -16.69 9.841483 86.48035 25.45635 -14.27767 -3.246485e-07 -1.316821e-07 16.28962 -19.44394 13.09654 8.963593 4.149363 -17.04049 -4.420405 -86.78877 25.89287 14.28672 -4.752369e-07 -1.126608e-07 -16.11864 1.414909 9.521617 13.03944
38.66083 108.9042 269.9148 1.967569 -7.946738 6.780546 1.083182 -15.34012 4.907462 -1.166294e-06 44.67566 6.830166e-07 1.800656 -8.567587 -8.158735 -5.166461 8.360688 -11.16607 1.32615e-06 14.55725 -1.673235e-06 -4.229955 -17.59228 16.0738 -2.393218 1.0899 3.555133 -0.09530476 9.043746 -5.850979 2.744602 23.39777 5.229329 0.7415284 -16.11146 9.364354 2.646356 -15.96472 9.630497 87.22573 25.57556 -15.63878 -3.01493e-07 -1.424478e-07 14.77027 -18.90604 13.01633 8.54715 4.831235 -17.88164 -4.460613 -85.47664 25.80693 11.46122 -4.642582e-07 -1.182358e-07 -18.3648 2.023486 9.880807 12.04396
39.47556 108.4408 274.9202 1.978063 -7.30838 7.507192 1.300956 -18.84865 4.186875 -1.988883e-06 36.82244 1.371482e-06 1.407453 -9.188396 -8.45828 -5.026029 11.2248 -10.98881 9.061933e-07 12.83887 -1.561482e-06 -4.265219 -19.06153 15.97456 -2.444339 1.074727 3.099299 0.2438897 8.601029 -6.254416 2.812671 23.4819 5.195054 0.779579 -16.0585 9.36007 2.259009 -15.22132 9.371176 87.9866 25.61661 -16.96649 -8.227659e-08 -1.285255e-07 13.22029 -18.638 12.87992 8.19379 5.64247 -18.7449 -4.364048 -84.37613 25.57897 8.608072 -4.990194e-07 -1.406853e-07 -20.70768 2.621749 10.25213 10.96576
40.14472 107.524 279.9328 2.017156 -6.780477 8.055983 1.479455 -21.96157 3.543731 -6.515119e-07 29.24761 3.613395e-07 0.7667976 -10.17307 -8.620108 -4.951358 13.70304 -10.99153 7.345087e-07 12.05951 -1.278405e-06 -4.061968 -20.26835 16.11102 -2.538003 1.075306 2.687395 0.5743679 8.18703 -6.595525 2.852412 23.61895 5.15796 0.8585516 -15.98118 9.294113 1.974825 -14.43202 9.176846 88.37316 25.828 -18.18965 -1.246234e-07 -3.556968e-08 11.51384 -18.03715 12.54423 7.608174 6.368013 -19.56788 -4.25967 -83.10026 25.44905 5.726416 -3.143297e-07 -3.769672e-08 -22.94103 3.298633 10.77635 9.740935
40.69467 106.3677 285.1053 2.011173 -6.338693 8.446883 1.579333 -23.94557 2.892251 -2.539883e-07 23.29358 2.41633e-07 -0.0004626278 -11.0312 -8.790291 -4.898516 15.89617 -10.90451 7.538919e-07 12.65625 -1.513361e-06 -4.180884 -20.8143 15.95474 -2.585285 0.9496512 2.319701 0.8236021 7.721189 -6.860749 2.927599 23.85292 5.012176 0.8639557 -15.89129 9.211504 1.674045 -13.61467 8.936546 88.97292 26.00971 -19.28798 -3.107981e-08 1.030033e-07 9.839174 -17.42417 12.21 7.019635 6.870986 -20.18059 -4.089115 -82.13298 25.3591 3.314988 -2.705901e-07 6.372748e-08 -24.65093 3.979176 11.33155 8.622364
